<svg width="98" height="52" viewBox="0 0 98 52" fill="none" xmlns="http://www.w3.org/2000/svg">
<path fill-rule="evenodd" clip-rule="evenodd" d="M9.48032 21.442H18.9259L17.2348 0H7.53906L9.48032 21.442Z" fill="#76FFA5"/>
<path fill-rule="evenodd" clip-rule="evenodd" d="M0.928301 31.9167H10.5186L9.4802 21.4421L0 21.4419L0.928301 31.9167Z" fill="#76FFA5"/>
<path fill-rule="evenodd" clip-rule="evenodd" d="M54.6898 0.0344238H45.1978L42.4875 31.2524L42.5223 31.9739L33.347 9.83943H28.9367L19.7904 31.8916V31.9164H19.7803L19.7566 31.9739L19.7524 31.9164H10.4287L12.1937 51.4177L19.9371 51.4525L31.1418 24.4654L42.3403 51.4525H50.3032L54.6898 0.0344238Z" fill="#76FFA5"/>
<path fill-rule="evenodd" clip-rule="evenodd" d="M87.5689 30.0105H78.1233L79.8144 51.4525H89.5101L87.5689 30.0105Z" fill="#76FFA5"/>
<path fill-rule="evenodd" clip-rule="evenodd" d="M87.624 30.0107H97.0787L96.3365 19.5359H86.5601L87.624 30.0107Z" fill="#76FFA5"/>
<path fill-rule="evenodd" clip-rule="evenodd" d="M84.8552 0.0350792L77.1124 0.000244141L65.9076 26.9868L54.7087 0.0345514H46.7457L42.2288 51.4178H49.2127L53.1817 16.0851L54.5271 19.4788L63.7019 41.6128H68.1128L77.2586 19.5606V19.5358H77.2686L77.2923 19.4788L77.2971 19.5358H86.6207L84.8552 0.0350792Z" fill="#76FFA5"/>
</svg>
